<svg version="1" xmlns="http://www.w3.org/2000/svg" width="1322.667" height="1322.667" viewBox="0 0 992.000000 992.000000"><path d="M155 .8c-1.6.6-1.4 990.2.3 990.3 11.6.5 413.7.2 413.7-.4 0-1.4-18.4-37.1-19.5-37.9-.5-.4-.6-.8-.1-.8s.4-.6-.2-1.3c-.5-.6-3.5-6.2-6.6-12.3l-5.7-11.1H218.5l-.5-19.2c-.3-10.6-.2-19.8.2-20.4.3-.5.3-1.9-.1-3.1-.5-1.1-.5-3.5-.1-5.3.5-1.8.5-3.3.1-3.3-.6 0-.4-82.7.2-84.5.3-.5.1-1.9-.3-3s-.4-3.4.1-5.2c.4-1.8.4-3.3 0-3.3-.6 0-.4-274.7.3-276.5.2-.6 0-1.9-.4-3s-.4-3.4.1-5.2c.4-1.8.4-3.3 0-3.3-.6 0-.4-82.7.2-84.5.3-.5.1-1.9-.3-3s-.4-3.4.1-5.2c.4-1.8.4-3.3 0-3.3-.6 0-.4-82.7.2-84.5.3-.5.1-1.9-.3-3s-.4-3.4.1-5.2c.4-1.8.4-3.3 0-3.3-.6 0-.4-82.7.2-84.5.3-.5.1-1.9-.3-3s-.4-3.4.1-5.2c.4-1.8.4-3.3 0-3.3-.6 0-.4-82.7.2-84.5.3-.5.1-1.9-.3-3s-.4-3.4.1-5.2c.4-1.8.4-3.3 0-3.3-.7 0-.4-42 .4-42.8.2-.3 25.6-.6 56.2-.6 30.7-.1 55.8-.5 55.7-.9-.1-1.1-5.8-13.1-6.4-13.7-.3-.3-3-5.5-6-11.5-3-6.1-6.9-13.6-8.7-16.8-1.7-3.1-3-5.7-2.7-5.7.2 0-.8-1.9-2.2-4.2-1.4-2.2-2.7-4.6-2.8-5.2-.1-.6-.9-2.2-1.8-3.5L298.2.8 227.1.6c-39.1 0-71.6 0-72.1.2zM424 1.5c0 .5 1.1 3 2.5 5.4 1.4 2.3 2.5 4.9 2.5 5.6 0 .7.3 1.5.8 1.7.4.1 2.7 4.3 5.1 9.3 2.5 4.9 5 9.7 5.7 10.5.7.8 1.3 1.8 1.3 2.3 0 .4 1.9 4.3 4.1 8.7 2.3 4.3 4 8.1 3.8 8.3-.1.3.4 1.3 1.2 2.3.8 1.1 2.3 3.5 3.3 5.5l1.8 3.5h156.5c138.3-.1 156.4.1 156.5 1.4.1.8.2 194.9.3 431.2.1 285.8-.2 429.9-.9 430.1-.5.1-24.7.2-53.7.1-29.1 0-52.8.1-52.8.3 0 .4 15.4 30.7 27.8 54.5 3.4 6.8 5 8.8 6.6 8.9 3.1 0 138.8.1 140.9 0 1.6-.1 1.7-24.4 1.7-495.4V.5H631.5C493.8.5 424 .8 424 1.5z"/><path d="M482.7 152.6c-.1.1-6.5.4-14.2.8-7.7.3-15.8.8-18 1-9 1-14.2 1.6-17 2.1-1.6.3-3.9.7-5 .9-1.1.2-3.1.6-4.5 1-1.4.3-3.6.8-5 1-7.2 1.1-22.2 5.9-33 10.4-8.7 3.7-25.2 12.9-25.8 14.4-.2.4-1 .8-1.8.8s-1.7.7-2 1.5c-.4.8-1 1.5-1.5 1.5-1.9 0-20.9 18.6-20.9 20.5 0 .4-.6 1.3-1.2 2-2.4 2.7-3.4 4-6.4 9-3.8 6.3-8.8 16.8-10.4 22-.7 2.2-1.5 4.4-1.9 5-.3.5-.7 1.4-.8 2-4.5 18.7-4.8 20.5-5.8 29.5-.3 3-.8 7.3-1 9.5-.7 6-.7 86 0 94 .5 6.1 1 10.5 1.9 16.5.2.8.6 3.1 1.1 5 .5 1.9 1 3.8 1.1 4.2.1.5.3 1.1.4 1.5.1.5.3 1.2.4 1.8.9 5.3 12.1 29.7 14.4 31.5.4.3 2.6 3 4.9 6 5.5 7.2 14.7 16.2 23.3 23 2.5 1.9 4.7 3.8 4.8 4.2.2.4 1 .8 1.8.8s1.4.4 1.4 1c0 .5.6 1 1.4 1 .8 0 1.6.4 1.8.8.3.8 15.2 10.3 21.8 13.9 1.9 1.1 6 3.3 9 5 3 1.7 9.8 5.2 15 7.9 5.2 2.6 10.6 5.5 12 6.5 1.4.9 2.8 1.7 3.3 1.8.9.1 11.2 5.2 18.2 9.1 2.8 1.5 12.2 6.4 21 11s20.7 10.8 26.5 13.8c5.8 3.1 13.7 7.1 17.5 9 3.9 1.9 7.2 3.8 7.3 4.3.2.5 1 .9 1.7.9 2.6 0 23.3 11.8 32.2 18.4 6 4.4 15.3 13.4 15.3 14.8 0 .4.6 1.3 1.3 2 2.2 2.2 7.2 13.5 8.4 18.8 1.4 6.1 1.7 16.5 1.7 52.5-.1 36.2-.3 41.7-1.8 47-2.4 7.9-6.9 15.9-11.4 20.2-3.9 3.6-13.2 9.7-13.2 8.7 0-.4-.6-.2-1.2.4-1.3 1-10.1 3.7-15.3 4.6-12.4 2.3-58.8 2.8-71.5.7-27.6-4.5-40.8-16.7-44.6-41.1-.4-2.5-.7-24.4-.7-48.8 0-32-.3-44.2-1.1-44.3-.6 0-25.7-.1-55.9-.2l-54.7-.2-.1 25c-.1 35.8.1 61.2.6 67 .7 7.9 1.5 14.8 2 17.5.3 1.4.8 4.1 1.1 6 .3 1.9 1.1 5.7 1.9 8.5.8 2.7 1.5 5.4 1.6 6 .5 4 10.7 26.7 12.1 27.3.5.2.8.8.8 1.3 0 1.6 10.3 15 16.4 21.2 3.1 3.3 5.6 5.7 5.6 5.4 0-.3 1.4.8 3 2.3 11 10.2 38 23.3 58 28 2.5.6 5.3 1.3 6.3 1.5 3.2.9 5.5 1.3 10.4 2.1 2.6.3 5.7.9 6.8 1.1 4.3 1 8.6 1.4 26.5 2.9 10.7.8 60.7.9 72 0 5.2-.4 12-.9 15-1.1 3-.2 10.9-1.4 17.5-2.6 6.6-1.2 12.9-2.3 14-2.4 2.6-.3 15.5-4.1 22.5-6.7 3-1.1 7.1-2.5 9-3.1 1.9-.6 3.7-1.4 4-1.7.5-.6 4.5-2.3 4.5-1.9 0 .1 2.5-1.3 5.5-3.1s6.5-3.6 7.7-4.1c1.3-.5 2.3-1.2 2.3-1.7s1-1.3 2.3-1.9c4.3-2 15.9-12.2 23.1-20.4 4.5-5.2 11.6-15.4 11.6-16.8 0-.5.4-1.1.8-1.3 1.8-.7 11.4-23.9 12.7-30.8.2-.8.8-3.4 1.4-5.7.6-2.3 1.4-6.1 1.7-8.5.3-2.4.7-4.9 1-5.7 1.2-3.6 1.7-22 1.7-62.6.1-40.4-.3-53.3-1.7-62.3-1.3-8.1-3-15.8-3.7-16.7-.4-.6-1-2.2-1.2-3.5-.5-3.3-1.2-4.9-6.4-15.8-2.5-5-4.9-9.2-5.4-9.2s-.9-.6-.9-1.3c0-1.4-11.2-15.2-15.5-19.2-16.8-15.6-35.6-28.1-67-44.5-20.4-10.7-36.6-19.1-47-24.4-5.5-2.8-10.2-5.3-10.5-5.6-.3-.3-4.8-2.6-10-5.2s-16-8.2-24-12.4c-8-4.1-20.6-10.7-28-14.6-18.2-9.5-26.2-14.9-34.1-23-7.9-8-12.8-17.3-14.5-27.3-.2-1.1-.6-3.6-.9-5.5-.3-1.9-.6-20.4-.6-41-.1-38.9.6-47 4.5-54.5.9-1.7 1.6-3.6 1.6-4.3 0-.6.5-1.2 1-1.2.6 0 1-.5 1-1 0-1.8 7.1-8.9 12.4-12.4 4.1-2.6 12.8-6.7 15.6-7.2.3 0 1.6-.4 3-.7 8.9-2.4 18.5-3.1 40.5-3.1 18.1.1 31.7.8 33.4 1.8.3.2 2.2.7 4.3 1 19.8 3.1 37.3 18.5 40.5 35.5.2 1.4.7 2.9 1.1 3.5.3.6.7 21.7.7 46.9.1 32.2.4 46 1.2 46.5.8.5 102.3.8 108.9.3.8-.1 1.1-12.8.9-46.4-.2-25.4-.6-48-.9-50.2-1.4-11-2.9-19.3-4.1-22.5-.7-1.9-1-4-.8-4.7.2-.6-.1-1.4-.6-1.8-.6-.3-1.1-1.4-1.1-2.4 0-4.6-12.9-31.2-17.9-36.9-.9-1-3.6-4.2-6.1-7.2-14.6-17.6-42.1-34.3-67.7-41.1-1.8-.5-5-1.3-7-1.9-4.9-1.3-16.7-3.7-21.8-4.5-2.2-.3-5.4-.8-7.2-1.1-9.1-1.5-30.4-2.6-51.4-2.8-10.4-.1-19.1-.1-19.2 0z"/></svg>