<?xml version="1.0" standalone="no"?>
<!DOCTYPE svg PUBLIC "-//W3C//DTD SVG 20010904//EN"
 "http://www.w3.org/TR/2001/REC-SVG-20010904/DTD/svg10.dtd">
<svg version="1.0" xmlns="http://www.w3.org/2000/svg"
 width="731.000000pt" height="731.000000pt" viewBox="0 0 731.000000 731.000000"
 preserveAspectRatio="xMidYMid meet">
<metadata>
Created by potrace 1.11, written by Peter Selinger 2001-2013
</metadata>
<g transform="translate(0.000000,731.000000) scale(0.100000,-0.100000)"
fill="#000000" stroke="none">
<path d="M1343 7222 l-133 -3 0 -3567 0 -3567 1470 1 c809 0 1472 3 1475 6 5
4 -55 191 -74 233 -5 11 -20 45 -34 75 -27 63 -77 124 -117 145 -73 38 -100
39 -1158 40 -568 1 -1035 5 -1038 8 -5 4 -9 5817 -5 6073 l1 41 368 1 c202 0
375 1 385 1 16 1 15 4 -6 34 -32 42 -58 100 -97 222 -57 176 -118 236 -250
251 -61 6 -578 11 -787 6z"/>
<path d="M3140 7193 c0 -17 90 -243 119 -301 67 -134 136 -176 303 -188 51 -3
526 -6 1056 -6 l962 0 0 -3058 0 -3058 -400 0 c-220 1 -403 -2 -406 -5 -3 -3
12 -32 33 -64 22 -32 73 -112 113 -178 143 -233 163 -248 380 -272 86 -10 676
-5 783 6 4 1 7 1605 7 3566 l0 3565 -1475 0 c-811 0 -1475 -3 -1475 -7z"/>
<path d="M3488 6125 c-2 -1 -43 -6 -93 -9 -99 -8 -133 -12 -215 -27 -30 -6
-68 -13 -84 -16 -58 -10 -203 -66 -286 -110 -97 -52 -203 -128 -273 -197 -187
-183 -299 -483 -300 -806 0 -74 10 -210 18 -240 2 -8 6 -31 9 -50 3 -19 8 -46
11 -60 3 -14 8 -35 11 -47 27 -131 132 -367 220 -494 69 -100 84 -119 165
-200 125 -125 193 -166 714 -434 435 -223 502 -259 547 -292 180 -131 318
-468 312 -768 -2 -99 -10 -153 -35 -228 -48 -143 -130 -219 -289 -269 -69 -21
-91 -23 -275 -22 -169 1 -212 5 -279 23 -138 37 -208 95 -246 203 -30 87 -37
164 -38 435 0 142 -1 265 -1 273 -1 13 -52 15 -401 15 -313 0 -400 -3 -401
-12 -4 -66 0 -560 5 -633 41 -536 352 -849 921 -925 150 -20 616 -27 750 -12
33 4 87 10 120 13 129 12 316 62 430 115 162 75 296 210 377 379 24 50 65 162
73 200 26 115 47 224 51 264 3 28 7 62 9 75 7 42 19 272 19 366 0 367 -91 613
-309 831 -114 115 -225 184 -570 355 -165 82 -343 172 -395 200 -330 177 -413
223 -445 252 -141 123 -243 397 -250 663 -5 199 37 341 127 426 65 62 161 103
273 116 116 14 400 7 480 -12 88 -20 182 -92 222 -170 45 -88 50 -132 52 -452
l1 -299 398 -1 c218 -1 399 2 402 7 11 16 3 644 -9 727 -59 411 -287 675 -674
781 -81 22 -128 30 -277 45 -30 3 -80 9 -110 12 -56 6 -456 14 -462 9z"/>
</g>
</svg>
